<svg width="50" height="50" viewBox="0 0 50 50" fill="none" xmlns="http://www.w3.org/2000/svg">
<g clip-path="url(#clip0)">
<path d="M10.5184 45.3619L10.49 45.8319H8.89393V48.9976H41.1058V45.8319H39.5107L39.4813 45.3619L39.1982 40.7354H50.0002V21.9844L40.3478 13.8703H36.4783L35.8011 1.00244H14.1985L13.5217 13.8703H9.65219L0 21.9844V40.7353H10.8014L10.5184 45.3619ZM16.4912 20.7254C16.545 20.4415 16.6076 20.16 16.6833 19.8827C16.7047 19.8053 16.7233 19.728 16.7457 19.6511H14.0601H13.2166H11.0755C10.6094 19.6511 10.2329 19.2738 10.2329 18.8084C10.2329 18.3435 10.6094 17.9659 11.0755 17.9659H13.3054H14.1489H14.9923L15.2078 13.8706L15.7971 2.68813H34.2014L34.7905 13.8706L35.0061 17.9659H35.8496H36.6931H38.9232C39.3889 17.9659 39.7657 18.3435 39.7657 18.8084C39.7657 19.2738 39.3889 19.6511 38.9232 19.6511H36.7818H35.9376H33.5725C33.5954 19.728 33.6152 19.8054 33.6358 19.8827C33.7106 20.16 33.7741 20.4415 33.8276 20.7254C33.905 21.1392 33.9659 21.5581 33.9963 21.9844C34.0169 22.2601 34.0275 22.5373 34.0275 22.8171C34.0275 23.1314 34.0103 23.4405 33.9855 23.7473C33.8752 25.0863 33.5295 26.3478 32.9963 27.481C32.5519 28.4241 31.9776 29.275 31.2994 30.0091C29.7045 31.739 27.5437 32.8087 25.1598 32.8087C22.7767 32.8087 20.6152 31.739 19.0199 30.0091C18.3426 29.275 17.7679 28.4241 17.3239 27.481C16.7902 26.347 16.445 25.0855 16.3342 23.7473C16.3091 23.4404 16.2922 23.1314 16.2922 22.8171C16.2922 22.5373 16.3033 22.26 16.3235 21.9844C16.3542 21.5588 16.4138 21.1392 16.4912 20.7254ZM7.20856 28.7995H4.66692V24.5708H7.20856V28.7995ZM36.6651 40.7353L36.9582 45.5158H13.0423L13.3349 40.7353H36.6651Z" fill="#131A22"/>
<path d="M18.74 27.4812C19.2914 28.4787 20.0094 29.3411 20.8563 30.0093C22.08 30.9753 23.5613 31.5449 25.159 31.5449C26.7566 31.5449 28.2379 30.977 29.4616 30.0093C30.3076 29.3411 31.0259 28.4786 31.5774 27.4812C32.188 26.3786 32.5922 25.1116 32.7182 23.7475C32.7461 23.4413 32.7625 23.1316 32.7625 22.8173C32.7625 22.5359 32.7477 22.2592 32.7255 21.9846C32.6901 21.5557 32.6294 21.1344 32.542 20.7255C32.4802 20.4382 32.4037 20.1584 32.318 19.8829C32.2934 19.8047 32.2662 19.7282 32.2399 19.6513C32.1692 19.4434 32.0927 19.2402 32.0087 19.0402C31.8516 18.6661 31.6731 18.3081 31.4738 17.9659C31.4031 17.8445 31.3323 17.7215 31.2564 17.6046C31.2564 17.6039 31.2556 17.6039 31.2556 17.6029C31.1041 17.3693 30.9421 17.1454 30.7709 16.931C30.027 15.8785 29.3753 14.8523 28.8009 13.8706C26.0901 9.24769 25.1582 5.67126 25.1582 5.67126C25.1582 5.67126 24.2253 9.24691 21.5162 13.8706C20.9407 14.8523 20.2901 15.8785 19.5448 16.931C19.3741 17.1454 19.2119 17.3693 19.0606 17.6029C19.0606 17.6039 19.0598 17.6039 19.0598 17.6046C18.9836 17.7215 18.9137 17.8445 18.8429 17.9659C18.6433 18.3081 18.4647 18.6661 18.3079 19.0402C18.2244 19.2402 18.147 19.4442 18.0763 19.6513C18.05 19.7282 18.0233 19.8047 17.9986 19.8829C17.9126 20.1586 17.836 20.4384 17.7742 20.7255C17.6865 21.1346 17.6261 21.555 17.5907 21.9846C17.5681 22.2594 17.5537 22.5359 17.5537 22.8173C17.5537 23.1316 17.5698 23.4415 17.5982 23.7475C17.7266 25.1116 18.1311 26.3784 18.74 27.4812ZM28.9095 17.4525C29.0543 17.6195 29.1736 17.7947 29.3029 17.9656C29.5679 18.3153 29.805 18.6728 30.0089 19.0399C30.1208 19.2415 30.2229 19.4456 30.3168 19.651C30.3513 19.7279 30.3827 19.8053 30.4139 19.8825C30.529 20.1598 30.6295 20.4404 30.7101 20.7252C30.8295 21.1383 30.9125 21.5579 30.961 21.9843C31.0259 22.5615 31.0326 23.149 30.9668 23.7474C30.8951 24.4012 30.7569 25.0644 30.5273 25.7364C30.1027 26.9708 28.1375 26.4408 28.5639 25.1957C28.7333 24.7044 28.842 24.2227 28.9111 23.7474C28.9991 23.1455 29.0091 22.5565 28.9275 21.9843C28.8657 21.5554 28.7465 21.1366 28.5853 20.7252C28.4724 20.4397 28.3349 20.1581 28.1722 19.8825C28.1261 19.8061 28.0892 19.727 28.0389 19.651C27.9041 19.444 27.7477 19.2407 27.5831 19.0399C27.5419 18.9913 27.5122 18.9398 27.4695 18.8918C27.2159 18.5976 27.1666 18.2647 27.2423 17.9656C27.42 17.2602 28.3047 16.7537 28.9095 17.4525Z" fill="#131A22"/>
</g>
<defs>
<clipPath id="clip0">
<rect width="50" height="50" fill="white"/>
</clipPath>
</defs>
</svg>
