<svg width="504" height="405" viewBox="0 0 504 405" fill="none" xmlns="http://www.w3.org/2000/svg">
<path fill-rule="evenodd" clip-rule="evenodd" d="M265.281 263.315L296.907 294.151L352.318 240.123C373.585 219.388 373.585 185.759 352.318 165.023L296.358 110.461L264.732 141.297L289.066 165.023C310.333 185.759 310.333 219.388 289.066 240.123L265.281 263.315Z" fill="#F15A22"/>
<path fill-rule="evenodd" clip-rule="evenodd" d="M207.574 319.6L184.134 342.435L79.2016 240.143C57.935 219.388 57.935 185.779 79.2016 165.044L184.113 62.7319L206.985 85.0321L238.61 54.196L184.134 1.05969L15.95 165.024C-5.31667 185.759 -5.31667 219.388 15.95 240.124L184.113 404.088L239.159 350.417L207.574 319.6Z" fill="#F26522"/>
<path fill-rule="evenodd" clip-rule="evenodd" d="M151.597 164.469C130.33 185.205 130.33 218.833 151.597 239.569L319.78 403.553L487.964 239.569C509.23 218.833 509.23 185.205 487.964 164.469L319.78 0.505127L151.597 164.469ZM424.692 164.469C445.958 185.205 445.958 218.833 424.692 239.569L319.76 341.881L214.828 239.569C193.561 218.833 193.561 185.205 214.828 164.469L319.76 62.1773L424.692 164.469Z" fill="#F26522"/>
</svg>
