<svg width="48" height="50" viewBox="0 0 48 50" fill="none" xmlns="http://www.w3.org/2000/svg">
<path d="M46.6904 30.702C45.6842 40.8328 37.4755 48.9754 27.3375 49.9069C15.3532 51.0082 5.13396 42.1969 3.94859 30.7444H1.8365C0.552428 30.7444 -0.250105 29.3542 0.392052 28.2423L5.11574 20.0624C5.75782 18.9506 7.36272 18.9507 8.00471 20.0625L12.7275 28.2424C13.3695 29.3544 12.567 30.7444 11.283 30.7444H9.44426C10.6388 39.295 18.5992 45.7078 27.7263 44.3701C34.4801 43.3803 39.9585 38.0518 41.1064 31.323C42.8246 21.2518 35.0747 12.4865 25.3163 12.4865C22.1518 12.4865 19.0974 13.4047 16.4738 15.1433C15.2561 15.9502 13.5682 15.7905 12.6749 14.6349C11.7023 13.3766 12.0059 11.5802 13.3029 10.7044C16.1179 8.80278 19.309 7.61438 22.6524 7.20057V4.1H20.4642C19.7113 4.1 19.101 3.48971 19.101 2.73676V1.36324C19.101 0.610294 19.7113 0 20.4642 0H30.6122C31.365 0 31.9754 0.610294 31.9754 1.36324V2.73676C31.9754 3.48962 31.3651 4.1 30.6122 4.1H28.2019V7.23292C39.3826 8.7415 47.8648 18.8776 46.6904 30.702ZM47.3965 10.0707L43.286 6.27124C42.7331 5.76021 41.8707 5.79412 41.3595 6.34698L40.2722 7.52337C39.7611 8.07623 39.795 8.93873 40.3479 9.44984L44.4584 13.2492C45.0113 13.7601 45.8737 13.7263 46.3849 13.1734L47.4722 11.9971C47.9833 11.4442 47.9494 10.5817 47.3965 10.0707ZM25.2517 15.2891V28.622H38.4514C38.4516 20.5024 32.2912 15.2891 25.2517 15.2891Z" fill="#131A22"/>
</svg>
