<svg width="50" height="46" viewBox="0 0 50 46" fill="none" xmlns="http://www.w3.org/2000/svg">
<path d="M49.9908 15.5C49.9083 14.0742 48.2125 12.96 44.8208 12.11C44.935 11.86 44.9992 11.6 45 11.33V5.5H44.9858C44.6875 0.643333 24.7858 0.5 22.5 0.5C20.2142 0.5 0.3125 0.643333 0.0141667 5.5H0V5.60833V11.3325C0.00416667 12.9158 2.0475 14.155 5.0875 15.0775C5.04583 15.2158 5.02083 15.3567 5.0125 15.5H5V15.6083V21.3225C1.725 22.1658 0.0891667 23.2642 0.00833333 24.6667H0V24.775V30.4992C0.0025 31.6017 0.996667 32.5367 2.62333 33.3158C2.5625 33.4842 2.52333 33.6567 2.5125 33.8333H2.5V33.9417V39.6658C2.50667 42.4375 8.7475 44.1583 15.6817 44.9617C15.7325 44.9717 15.7792 44.9925 15.8333 44.9925C15.8492 44.9925 15.8625 44.9842 15.8783 44.9833C17.215 45.1342 18.5733 45.2517 19.9175 45.3358C19.9458 45.3392 19.9708 45.3525 20 45.3525C20.0158 45.3525 20.0283 45.3442 20.0433 45.3433C21.75 45.4475 23.4292 45.5 25 45.5C26.5708 45.5 28.25 45.4475 29.9567 45.3433C29.9717 45.3442 29.985 45.3525 30 45.3525C30.0292 45.3525 30.0542 45.3383 30.0825 45.3358C31.4267 45.2517 32.785 45.135 34.1217 44.9833C34.1375 44.9833 34.1508 44.9917 34.1667 44.9917C34.2208 44.9917 34.2675 44.9708 34.3183 44.9608C41.2525 44.1575 47.4925 42.4358 47.5 39.6633V33.8333H47.4867C47.4283 32.8117 46.5575 31.9592 44.8375 31.2467C44.9425 31.0058 45 30.7558 45 30.4967V25.05C47.9917 24.13 49.9958 22.8992 50 21.33V15.5H49.9908ZM5.83333 13.5617V9.53583C6.61167 9.74583 7.44833 9.9375 8.33333 10.1117V14.1792C8.23083 14.1575 8.125 14.1358 8.025 14.1142C7.58167 14.0167 7.14917 13.915 6.73583 13.8075C6.42083 13.7267 6.12167 13.6442 5.83333 13.5617ZM43.1425 11.735L43.1192 11.73L42.8158 11.9658C42.3758 12.3083 41.7 12.655 40.8333 12.99V9.02583C41.8242 8.68083 42.6675 8.29833 43.3333 7.87917V11.3275C43.3333 11.4542 43.2667 11.5908 43.1425 11.735ZM20.9792 30.4858C21.2083 30.49 21.4375 30.4933 21.6667 30.4958V34.6608C21.505 34.6592 21.3433 34.6592 21.1825 34.6567C21.1092 34.6558 21.0383 34.6533 20.9658 34.6525C20.5842 34.6458 20.2042 34.6367 19.8267 34.625C19.78 34.6233 19.7333 34.6217 19.6867 34.62C19.2325 34.605 18.7817 34.5858 18.3342 34.5642V30.4042C19.1692 30.4433 20.0083 30.4692 20.8475 30.4842C20.8908 30.4842 20.935 30.485 20.9792 30.4858ZM24.1533 30.4833C24.9925 30.4675 25.8317 30.4417 26.6667 30.4033V34.5642C26.4883 34.5733 26.3092 34.5817 26.1283 34.5892C25.6283 34.61 25.1208 34.6275 24.605 34.64C24.4833 34.6433 24.3608 34.645 24.2383 34.6475C23.9408 34.6533 23.6358 34.655 23.3342 34.6575V30.495C23.5633 30.4925 23.7925 30.4892 24.0217 30.485C24.065 30.485 24.1092 30.4842 24.1533 30.4833ZM28.8883 34.4233C28.705 34.4375 28.52 34.4517 28.3333 34.465V30.3092C29.1783 30.2533 30.0133 30.1867 30.8333 30.1067V34.245C30.3183 34.2992 29.7917 34.35 29.2508 34.3942C29.13 34.405 29.0092 34.4142 28.8883 34.4233ZM32.5 29.9267C33.3592 29.8233 34.1933 29.7058 35 29.575V33.6667C34.215 33.805 33.3808 33.9325 32.5 34.0483V29.9267ZM14.5992 34.29C14.5142 34.2817 14.43 34.2725 14.3458 34.2642C14.2858 34.2583 14.2267 34.2508 14.1667 34.245V30.1075C14.9867 30.1867 15.8217 30.2542 16.6667 30.31V34.4625C15.9667 34.4125 15.275 34.3558 14.5992 34.29ZM12.5 29.9267V34.0483C11.6192 33.9325 10.785 33.805 10 33.6667V29.575C10.8067 29.7058 11.6408 29.8242 12.5 29.9267ZM36.6667 33.345V29.2775C37.5517 29.1033 38.3883 28.9117 39.1667 28.7017V32.7275C38.4242 32.9417 37.5883 33.1492 36.6667 33.345ZM20.9792 11.3192C21.2083 11.3233 21.4375 11.3267 21.6667 11.3292V15.49C20.545 15.4792 19.43 15.45 18.3333 15.395V11.2375C19.1683 11.2767 20.0075 11.3025 20.8467 11.3175C20.8908 11.3175 20.935 11.3183 20.9792 11.3192ZM24.1533 11.3167C24.9925 11.3008 25.8317 11.275 26.6667 11.2367V15.3942C26.525 15.4008 26.3892 15.4108 26.2467 15.4175C26.235 15.4183 26.2233 15.4183 26.2108 15.4192C25.6517 15.4442 25.0817 15.4625 24.5042 15.4758C24.4142 15.4783 24.3242 15.4792 24.2342 15.4817C23.9375 15.4875 23.6342 15.4883 23.3333 15.4917V11.3292C23.5625 11.3267 23.7917 11.3233 24.0208 11.3192C24.065 11.3183 24.1092 11.3175 24.1533 11.3167ZM29.1533 21.3167C29.9925 21.3008 30.8317 21.275 31.6667 21.2367V25.3933C30.5717 25.4475 29.4583 25.4775 28.3333 25.4892V21.3292C28.5625 21.3267 28.7917 21.3233 29.0208 21.3192C29.065 21.3183 29.1092 21.3175 29.1533 21.3167ZM21.1225 25.2575C20.5892 25.2158 20.0683 25.17 19.56 25.1192C19.4508 25.1083 19.3417 25.0967 19.2333 25.0858C19.2108 25.0833 19.1892 25.08 19.1667 25.0783V20.94C19.9867 21.0192 20.8217 21.0867 21.6667 21.1425V25.2958C21.5992 25.2908 21.5275 25.2875 21.46 25.2825C21.3467 25.2742 21.2342 25.2658 21.1225 25.2575ZM15.9542 24.66C15.6242 24.6075 15.3142 24.5508 15 24.4958V20.4092C15.8067 20.54 16.6408 20.6575 17.5 20.7608V24.8825C16.99 24.815 16.4908 24.745 16.0117 24.67C15.9925 24.6658 15.9733 24.6625 15.9542 24.66ZM25.9792 21.3192C26.2083 21.3233 26.4375 21.3267 26.6667 21.3292V25.49C26.2608 25.4858 25.8517 25.4842 25.4558 25.475C25.395 25.4733 25.3317 25.4725 25.2708 25.4717C24.6442 25.4558 24.0317 25.4317 23.43 25.4025C23.3975 25.4008 23.365 25.3992 23.3333 25.3983V21.2375C24.1683 21.2767 25.0075 21.3025 25.8467 21.3175C25.8908 21.3175 25.935 21.3183 25.9792 21.3192ZM34.3683 25.2175C34.3383 25.22 34.3092 25.2225 34.2792 25.225C33.9683 25.2508 33.6475 25.2675 33.3325 25.29V21.1417C34.1775 21.0858 35.0125 21.0192 35.8325 20.9392V25.0733C35.3492 25.125 34.8658 25.1758 34.3683 25.2175ZM14.1667 15.075V10.94C14.9867 11.0192 15.8217 11.0867 16.6667 11.1425V15.2908C15.8183 15.23 14.9817 15.1608 14.1667 15.075ZM30.8333 15.0733C30.0283 15.1583 29.195 15.2325 28.3333 15.2942V11.1425C29.1783 11.0867 30.0133 11.02 30.8333 10.94V15.0733ZM32.5 10.76C33.3592 10.6567 34.1933 10.5392 35 10.4083V14.4933C34.21 14.6325 33.3783 14.7608 32.5 14.8767V10.76ZM36.6667 14.1725V10.1117C37.5517 9.9375 38.3883 9.74583 39.1667 9.53583V13.5525C38.42 13.77 37.5792 13.9775 36.6667 14.1725ZM12.5 10.76V14.8775C12.335 14.8558 12.1633 14.8383 12 14.8158C11.8933 14.8008 11.7917 14.785 11.6867 14.77C11.205 14.7008 10.7342 14.6267 10.2725 14.5492C10.18 14.5333 10.0908 14.5167 10 14.5008V10.4092C10.8067 10.5392 11.6408 10.6575 12.5 10.76ZM13.3333 20.1108V24.1717C12.4125 23.9742 11.5775 23.7642 10.8333 23.5458V19.535C11.6117 19.745 12.4483 19.9375 13.3333 20.1108ZM39.9225 24.5142C39.5567 24.5775 39.1875 24.64 38.8083 24.6975C38.5908 24.7308 38.3683 24.7625 38.145 24.7942C37.9342 24.8242 37.715 24.85 37.5008 24.8775V20.76C38.36 20.6567 39.1942 20.5392 40.0008 20.4083V24.5C39.9742 24.505 39.9483 24.51 39.9225 24.5142ZM9.16667 19.0258V22.985C7.85667 22.4792 7.01167 21.9625 6.73667 21.5025L6.68083 21.4092C6.67583 21.3833 6.6675 21.3558 6.66667 21.33V17.8792C7.3325 18.2983 8.17583 18.6808 9.16667 19.0258ZM8.33333 29.2775V33.345C7.56833 33.1825 6.8625 33.0117 6.22 32.8367C6.11833 32.8083 6.01333 32.7808 5.91417 32.7517C5.88667 32.7433 5.86083 32.7358 5.83333 32.7283V28.7025C6.61167 28.9117 7.44833 29.1042 8.33333 29.2775ZM10.8333 38.4442V42.5117C9.91167 42.3158 9.07583 42.1083 8.33333 41.8942V37.8683C9.11167 38.0783 9.94833 38.2708 10.8333 38.4442ZM12.5 38.7425C13.3067 38.8733 14.1408 38.9908 15 39.0942V43.2158C14.1192 43.1 13.285 42.9725 12.5 42.8342V38.7425ZM16.6667 39.2733C17.4867 39.3525 18.3217 39.42 19.1667 39.4758V43.6317C18.3008 43.5708 17.4675 43.4967 16.6667 43.4125V39.2733ZM20.8333 39.57C21.6683 39.6092 22.5075 39.635 23.3467 39.65C23.3908 39.6508 23.435 39.6517 23.4783 39.6525C23.7075 39.6567 23.9367 39.66 24.1658 39.6625V43.8283C23.0142 43.8175 21.9025 43.7842 20.8325 43.7317V39.57H20.8333ZM25.8333 39.6617C26.0625 39.6592 26.2917 39.6558 26.5208 39.6517C26.565 39.6508 26.6092 39.65 26.6533 39.6492C27.4925 39.6333 28.3317 39.6075 29.1667 39.5692V43.73C28.0967 43.7825 26.985 43.8158 25.8333 43.8267V39.6617ZM30.8333 39.4758C31.6783 39.42 32.5133 39.3533 33.3333 39.2733V43.4117C32.5325 43.4958 31.6992 43.57 30.8333 43.6308V39.4758ZM35 39.0933C35.8592 38.99 36.6933 38.8725 37.5 38.7417V42.8333C36.715 42.9717 35.8808 43.0992 35 43.215V39.0933ZM39.1667 38.4442C40.0517 38.27 40.8883 38.0783 41.6667 37.8683V41.8942C40.9242 42.1083 40.0883 42.3158 39.1667 42.5117V38.4442ZM43.2433 30.7675L42.9592 31.0167C42.5217 31.4025 41.7925 31.7917 40.8333 32.1667V28.1933C41.8242 27.8483 42.6675 27.4658 43.3333 27.0467V30.495C43.3333 30.5808 43.3017 30.6725 43.2433 30.7675ZM43.8033 23.6633C43.3883 23.7792 42.9492 23.8875 42.5008 23.9933C42.2933 24.0417 42.0817 24.09 41.865 24.1367C41.8008 24.1508 41.7325 24.1633 41.6675 24.1775V20.1117C42.5525 19.9375 43.3892 19.7458 44.1675 19.5358V23.5617C44.0475 23.595 43.9267 23.6292 43.8033 23.6633ZM1.66667 11.33V7.87917C2.3325 8.29833 3.17583 8.68083 4.16667 9.02583V13.0158C2.54583 12.4083 1.66833 11.7992 1.66667 11.33ZM1.66667 30.4967V27.0458C2.3325 27.465 3.17583 27.8475 4.16667 28.1925V32.1667L3.69083 31.9817L3.68083 31.9917C2.3725 31.4492 1.66833 30.9167 1.66667 30.4967ZM4.16667 39.6633V36.2125C4.8325 36.6317 5.67583 37.0142 6.66667 37.3592V41.3492C5.04583 40.7417 4.16833 40.1325 4.16667 39.6633ZM43.3333 41.3492V37.36C44.3242 37.015 45.1675 36.6325 45.8333 36.2133V39.6617C45.8325 40.1308 44.9542 40.7408 43.3333 41.3492ZM45.8333 23.0158V19.0267C46.8242 18.6817 47.6675 18.2992 48.3333 17.88V21.3283C48.3325 21.7975 47.4542 22.4075 45.8333 23.0158Z" fill="#131A22"/>
</svg>
