<svg width="50" height="50" viewBox="0 0 50 50" fill="none" xmlns="http://www.w3.org/2000/svg">
<g clip-path="url(#clip0)">
<path d="M45.6055 0C43.6982 0 42.0875 1.22832 41.4808 2.92969H29.3945V1.46484C29.3945 0.655176 28.7394 0 27.9297 0H22.0703C21.2606 0 20.6055 0.655176 20.6055 1.46484V2.92969H8.51924C7.9125 1.22832 6.30176 0 4.39453 0C1.97129 0 0 1.97129 0 4.39453C0 6.81777 1.97129 8.78906 4.39453 8.78906C6.30176 8.78906 7.9125 7.56074 8.51924 5.8584H14.0834C7.4501 9.69443 2.92969 16.8781 2.92969 24.9023C2.92969 25.712 3.58486 26.3672 4.39453 26.3672C5.2042 26.3672 5.85938 25.712 5.85938 24.9023C5.85938 16.0704 12.1611 8.46777 20.6055 6.45195V7.32422C20.6055 8.13389 21.2606 8.78906 22.0703 8.78906H27.9297C28.7394 8.78906 29.3945 8.13389 29.3945 7.32422V6.45195C37.8389 8.46777 44.1406 16.0704 44.1406 24.9023C44.1406 25.712 44.7958 26.3672 45.6055 26.3672C46.4151 26.3672 47.0703 25.712 47.0703 24.9023C47.0703 16.8808 42.5501 9.69443 35.9168 5.85938H41.4808C42.0875 7.56074 43.6982 8.78906 45.6055 8.78906C48.0287 8.78906 50 6.81777 50 4.39453C50 1.97129 48.0287 0 45.6055 0Z" fill="#131A22"/>
<path d="M30.8594 48.5352V44.043H19.1406V48.5352C19.1406 49.3448 19.7958 50 20.6055 50H29.3945C30.2042 50 30.8594 49.3448 30.8594 48.5352Z" fill="#131A22"/>
<path d="M13.4357 33.1338C13.2011 33.6044 13.2354 34.1637 13.5273 34.6014L17.8683 41.1132H32.1316L36.4727 34.6014C36.7645 34.1637 36.7989 33.6044 36.5643 33.1338L26.4648 12.8373V33.7889C26.4648 34.5986 25.8096 35.2538 25 35.2538C24.1903 35.2538 23.5351 34.5986 23.5351 33.7889V12.8373L13.4357 33.1338Z" fill="#131A22"/>
</g>
<defs>
<clipPath id="clip0">
<rect width="50" height="50" fill="white"/>
</clipPath>
</defs>
</svg>
