<svg width="446" height="669" viewBox="0 0 446 669" fill="none" xmlns="http://www.w3.org/2000/svg">
<path opacity="0.1" fill-rule="evenodd" clip-rule="evenodd" d="M0 250C0 202.671 13.1518 158.415 36 120.685V155.123H86.0457V143.34H50.871V120.926H78.5827V109.581H50.871V98.8232C53.7812 94.9958 56.7993 91.2549 59.9206 87.6049H86.0457V75.8769H70.6088C116.041 29.0789 179.625 0 250 0H446V176H389.865V187.615H412.897V252H427.074V187.615H446V669H0V250ZM324 115.5C324 121.309 323.031 126.698 321.092 131.667C319.153 136.599 316.427 140.874 312.915 144.491C309.403 148.108 305.178 150.94 300.239 152.986C295.301 154.995 289.831 156 283.832 156C277.832 156 272.345 154.995 267.369 152.986C262.431 150.94 258.187 148.108 254.638 144.491C251.127 140.874 248.401 136.599 246.462 131.667C244.523 126.698 243.554 121.309 243.554 115.5C243.554 109.691 244.523 104.32 246.462 99.3877C248.401 94.4188 251.127 90.1258 254.638 86.5088C258.187 82.8917 262.431 80.0785 267.369 78.069C272.345 76.023 277.832 75 283.832 75C289.831 75 295.301 76.023 300.239 78.069C305.178 80.115 309.403 82.9465 312.915 86.5636C316.427 90.1441 319.153 94.4188 321.092 99.3877C323.031 104.32 324 109.691 324 115.5ZM308.855 115.5C308.855 111.152 308.269 107.261 307.099 103.827C305.965 100.356 304.318 97.4147 302.16 95.0034C300.002 92.592 297.368 90.7469 294.258 89.4682C291.185 88.1894 287.71 87.5501 283.832 87.5501C279.954 87.5501 276.46 88.1894 273.351 89.4682C270.241 90.7469 267.589 92.592 265.394 95.0034C263.236 97.4147 261.571 100.356 260.4 103.827C259.23 107.261 258.644 111.152 258.644 115.5C258.644 119.848 259.23 123.757 260.4 127.228C261.571 130.662 263.236 133.585 265.394 135.997C267.589 138.371 270.241 140.198 273.351 141.477C276.46 142.756 279.954 143.395 283.832 143.395C287.71 143.395 291.185 142.756 294.258 141.477C297.368 140.198 300.002 138.371 302.16 135.997C304.318 133.585 305.965 130.662 307.099 127.228C308.269 123.757 308.855 119.848 308.855 115.5ZM130.743 143.231C133.596 143.231 136.139 142.756 138.37 141.806C140.638 140.856 142.541 139.522 144.077 137.805C145.65 136.088 146.839 134.005 147.644 131.558C148.486 129.11 148.906 126.369 148.906 123.337V75.8769H163.668V123.337C163.668 128.05 162.899 132.416 161.363 136.435C159.863 140.417 157.686 143.87 154.833 146.793C151.979 149.679 148.522 151.945 144.461 153.589C140.401 155.196 135.828 156 130.743 156C125.658 156 121.085 155.196 117.024 153.589C112.963 151.945 109.506 149.679 106.653 146.793C103.836 143.87 101.659 140.417 100.123 136.435C98.6228 132.416 97.8728 128.05 97.8728 123.337V75.8769H112.634V123.282C112.634 126.315 113.037 129.055 113.841 131.503C114.683 133.951 115.872 136.051 117.408 137.805C118.945 139.522 120.829 140.856 123.06 141.806C125.328 142.756 127.889 143.231 130.743 143.231ZM193.908 155.123V124.159H200.218C201.682 124.159 202.779 124.36 203.511 124.762C204.279 125.164 204.974 125.84 205.596 126.79L222.278 152.164C222.9 153.114 223.65 153.844 224.528 154.356C225.442 154.867 226.54 155.123 227.82 155.123H241.1L221.235 125.858C219.882 123.885 218.272 122.369 216.406 121.309C219.187 120.432 221.656 119.263 223.814 117.802C226.009 116.34 227.839 114.641 229.302 112.705C230.802 110.769 231.936 108.613 232.704 106.238C233.509 103.863 233.911 101.342 233.911 98.6752C233.911 95.3139 233.326 92.2449 232.155 89.4682C231.021 86.6549 229.21 84.2436 226.723 82.2341C224.272 80.2246 221.107 78.6719 217.229 77.5758C213.388 76.4432 208.76 75.8769 203.346 75.8769H179.146V155.123H193.908ZM203.127 113.582H193.908V87.276H203.346C208.797 87.276 212.839 88.3539 215.473 90.5095C218.144 92.6651 219.479 95.7524 219.479 99.7713C219.479 101.781 219.15 103.626 218.492 105.306C217.833 106.987 216.827 108.449 215.473 109.691C214.156 110.896 212.455 111.846 210.37 112.541C208.321 113.235 205.907 113.582 203.127 113.582ZM163.177 225.248V252H149V176H173.823C178.918 176 183.328 176.596 187.052 177.787C190.776 178.978 193.851 180.643 196.275 182.78C198.7 184.917 200.492 187.475 201.651 190.454C202.811 193.432 203.39 196.691 203.39 200.23C203.39 203.909 202.775 207.29 201.546 210.373C200.316 213.422 198.471 216.05 196.012 218.257C193.552 220.465 190.478 222.182 186.789 223.408C183.099 224.634 178.778 225.248 173.823 225.248H163.177ZM163.177 214.21H173.823C176.424 214.21 178.69 213.895 180.622 213.264C182.555 212.598 184.153 211.67 185.418 210.479C186.683 209.252 187.632 207.781 188.264 206.064C188.897 204.312 189.213 202.367 189.213 200.23C189.213 198.197 188.897 196.358 188.264 194.711C187.632 193.064 186.683 191.663 185.418 190.506C184.153 189.35 182.555 188.474 180.622 187.878C178.69 187.248 176.424 186.932 173.823 186.932H163.177V214.21ZM229.057 222.304V252H214.88V176H238.122C243.322 176 247.767 176.543 251.456 177.629C255.18 178.68 258.22 180.17 260.574 182.097C262.963 184.024 264.702 186.337 265.791 189.035C266.916 191.698 267.478 194.641 267.478 197.864C267.478 200.422 267.091 202.84 266.318 205.118C265.581 207.395 264.491 209.462 263.051 211.32C261.645 213.177 259.889 214.806 257.78 216.207C255.707 217.609 253.336 218.73 250.665 219.571C252.457 220.587 254.003 222.041 255.303 223.934L274.382 252H261.628C260.398 252 259.344 251.755 258.466 251.264C257.622 250.774 256.902 250.073 256.305 249.162L240.283 224.827C239.686 223.916 239.018 223.268 238.28 222.882C237.577 222.497 236.523 222.304 235.118 222.304H229.057ZM229.057 212.16H237.911C240.581 212.16 242.9 211.828 244.868 211.162C246.871 210.496 248.505 209.585 249.77 208.429C251.07 207.237 252.036 205.836 252.668 204.224C253.301 202.612 253.617 200.843 253.617 198.916C253.617 195.061 252.334 192.101 249.77 190.033C247.24 187.966 243.357 186.932 238.122 186.932H229.057V212.16ZM285.215 252H299.445V176H285.215V252ZM324.053 176C324.685 176 325.212 176.035 325.634 176.105C326.056 176.14 326.425 176.245 326.741 176.42C327.092 176.561 327.426 176.788 327.742 177.104C328.058 177.384 328.41 177.769 328.796 178.26L368.798 229.084C368.658 227.858 368.552 226.667 368.482 225.51C368.447 224.319 368.429 223.215 368.429 222.199V176H380.92V252H373.594C372.47 252 371.539 251.825 370.801 251.474C370.063 251.124 369.343 250.493 368.64 249.582L328.796 198.968C328.902 200.089 328.972 201.211 329.007 202.332C329.077 203.418 329.112 204.417 329.112 205.328V252H316.622V176H324.053Z" fill="#37475A"/>
</svg>
