<svg width="16" height="17" viewBox="0 0 16 17" fill="none" xmlns="http://www.w3.org/2000/svg">
<g clip-path="url(#clip0)">
<path d="M15.753 1.60414C15.5575 1.36291 15.2647 1.22998 14.9287 1.22998C14.7458 1.22998 14.5523 1.26891 14.3534 1.34554L0.809593 6.56344C0.0908451 6.84027 -0.00595631 7.2557 0.000269251 7.47882C0.00649481 7.70181 0.12649 8.11108 0.859641 8.34639C0.864036 8.34787 0.86843 8.3491 0.872825 8.35046L2.77223 8.89894L12.0227 4.12925C12.2532 4.01024 12.5356 4.10264 12.6534 4.33536C12.746 4.51819 12.7088 4.73305 12.577 4.87449L12.5774 4.87486L7.43408 10.3904L7.28735 10.9905L9.12402 12.4832L11.6692 14.5516C11.6714 14.5533 11.6736 14.5552 11.6759 14.5569C11.9559 14.7762 12.2618 14.892 12.5605 14.8921C13.1443 14.8921 13.609 14.4561 13.7444 13.7815L15.9635 2.72255C16.0525 2.27878 15.9778 1.88146 15.753 1.60414Z" fill="white"/>
<path d="M6.55347 10.0431C6.57214 9.96657 6.60974 9.89363 6.66699 9.83215L10.0419 6.21289L3.7793 9.44198L5.20129 13.5464C5.28235 13.7802 5.40295 13.9793 5.55212 14.1352L6.55322 10.043L6.55347 10.0431Z" fill="white"/>
<path d="M6.4248 14.5152C6.76282 14.5124 7.09497 14.3685 7.38599 14.0981L8.42639 13.1312L7.03918 12.0039L6.4248 14.5152Z" fill="white"/>
</g>
<defs>
<clipPath id="clip0">
<rect width="16" height="16.1481" fill="white"/>
</clipPath>
</defs>
</svg>
